<?xml version="1.0" encoding="utf-8"?>
<!-- Generator: Adobe Illustrator 16.0.0, SVG Export Plug-In . SVG Version: 6.00 Build 0)  -->
<!DOCTYPE svg PUBLIC "-//W3C//DTD SVG 1.1//EN" "http://www.w3.org/Graphics/SVG/1.1/DTD/svg11.dtd">
<svg version="1.1" id="Layer_1" xmlns="http://www.w3.org/2000/svg" xmlns:xlink="http://www.w3.org/1999/xlink" x="0px" y="0px"
	 width="517.242px" height="74.59px" viewBox="0 0 517.242 74.59" enable-background="new 0 0 517.242 74.59" xml:space="preserve">
<g>
	<path d="M0,0h46.223C68.687,0,83.95,12.959,83.95,36.719c0,23.184-14.976,37.871-37.727,37.871H15.84V14.832H6.624L0,0z
		 M31.391,14.832v44.783h14.832c14.399,0,22.607-8.208,22.607-22.608c0-14.543-8.208-22.175-22.607-22.175H31.391L31.391,14.832z"/>
	<path d="M111.311,74.59V0h14.688v74.59H111.311z"/>
	<path d="M160.558,74.59V0h47.375c14.4,0,24.335,9.216,24.335,23.615c0,14.688-10.224,24.048-26.927,24.048h-6.624
		c-13.68,0-16.992,0.864-23.472,4.319V74.59H160.558z M175.246,37.151c6.48-3.744,14.832-4.32,23.472-4.32h6.624
		c7.056,0,11.808-1.296,11.808-9.36c0-7.344-5.76-8.64-11.808-8.64h-30.096V37.151z"/>
	<path d="M258.188,74.59V0h47.375c14.4,0,24.336,9.216,24.336,23.615c0,14.688-10.224,24.048-26.928,24.048h-6.623
		c-13.68,0-16.992,0.864-23.473,4.319V74.59H258.188z M272.876,37.151c6.479-3.744,14.832-4.32,23.474-4.32h6.623
		c7.057,0,11.809-1.296,11.809-9.36c0-7.344-5.76-8.64-11.809-8.64h-30.097V37.151L272.876,37.151z"/>
	<path d="M367.771,59.615h46.8V74.59h-61.487V0h58.751v14.832h-44.062v18.144c6.479-3.744,14.688-4.32,23.326-4.32h10.943v14.832
		H391.1c-13.68,0-16.848,0.863-23.326,4.32v11.807H367.771z"/>
	<path d="M433.292,0h46.223c22.464,0,37.729,12.959,37.729,36.719c0,23.184-14.977,37.871-37.729,37.871h-30.383V14.832h-9.216
		L433.292,0z M464.684,14.832v44.783h14.831c14.4,0,22.608-8.208,22.608-22.608c0-14.543-8.208-22.175-22.608-22.175H464.684
		L464.684,14.832z"/>
</g>
</svg>
